<svg width="26" height="32" viewBox="0 0 26 32" fill="none" xmlns="http://www.w3.org/2000/svg">
<path fill-rule="evenodd" clip-rule="evenodd" d="M25.375 8.91137L16.7125 0.25H0.625V31.75H25.375V8.91137ZM24.25 30.625H1.75V1.375H15.25V10.375H24.25V30.625ZM16.375 9.25V1.375L24.25 9.25H16.375ZM6.5 8C7.32843 8 8 7.32843 8 6.5C8 5.67157 7.32843 5 6.5 5C5.67157 5 5 5.67157 5 6.5C5 7.32843 5.67157 8 6.5 8ZM6.5 9C7.88071 9 9 7.88071 9 6.5C9 5.11929 7.88071 4 6.5 4C5.11929 4 4 5.11929 4 6.5C4 7.88071 5.11929 9 6.5 9ZM20 14H4V13H20V14ZM14 19H5V25H14V19ZM4 18V26H15V18H4Z" fill="#076FE5"/>
</svg>