<svg width="42" height="42" viewBox="0 0 42 42" fill="none" xmlns="http://www.w3.org/2000/svg">
<path fill-rule="evenodd" clip-rule="evenodd" d="M37.5 16.527V11.5485L25.95 0H4.49998V16.527H0.0269775V38.973H4.49998V42H37.5V38.973H41.973V16.527H37.5ZM25.5 1.5L36 12H25.5V1.5ZM5.99998 1.5H24V13.5H36V16.527H5.99998V1.5ZM36 40.5H5.99998V38.973H36V40.5ZM40.527 37.527H1.47298V17.973H40.527V37.527ZM10.275 31.902C9.03274 30.7053 8.53357 28.9311 8.96961 27.2623C9.40565 25.5934 10.7089 24.2902 12.3778 23.8541C14.0466 23.4181 15.8208 23.9173 17.0175 25.1595L15.957 26.22C15.1331 25.3851 13.9249 25.0557 12.7912 25.3569C11.6575 25.6581 10.7722 26.5437 10.4713 27.6775C10.1705 28.8113 10.5003 30.0193 11.3355 30.843C12.6279 32.0781 14.6631 32.0781 15.9555 30.843L17.0175 31.9035C16.1236 32.7981 14.9109 33.3008 13.6462 33.3008C12.3816 33.3008 11.1688 32.7981 10.275 31.9035V31.902ZM30.06 32.976L26.499 24H28.113L30.765 30.6795L33.456 24H35.073L31.455 32.979L30.06 32.976ZM23.949 30.6915C24.076 30.3564 24.0536 29.983 23.8875 29.6655C23.5338 29.2411 23.0201 28.982 22.4685 28.95C20.535 28.653 19.539 27.774 19.5075 26.3355C19.4945 25.6629 19.7542 25.0136 20.2275 24.5355C20.7375 24.0044 21.4411 23.7029 22.1775 23.7C23.3631 23.673 24.4643 24.311 25.0305 25.353L23.754 26.142C23.4611 25.5445 22.844 25.1753 22.179 25.2C21.85 25.2 21.5355 25.335 21.309 25.5735C21.1166 25.7613 21.008 26.0187 21.0075 26.2875C21.0135 26.5965 21.0285 27.2115 22.6965 27.4665C23.6972 27.5391 24.6099 28.065 25.1745 28.8945C25.5712 29.5947 25.6403 30.4338 25.3635 31.1895C24.8372 32.4491 23.5699 33.2363 22.2075 33.15C20.8653 33.2039 19.6121 32.4798 18.9885 31.29L20.2845 30.5325C20.6422 31.258 21.4 31.6984 22.2075 31.65C22.9307 31.723 23.6236 31.3407 23.9475 30.69L23.949 30.6915ZM3.74998 32.25C3.74998 31.4216 4.42155 30.75 5.24998 30.75C6.0784 30.75 6.74998 31.4216 6.74998 32.25C6.74998 33.0784 6.0784 33.75 5.24998 33.75C4.42224 33.7483 3.75163 33.0777 3.74998 32.25Z" fill="#076FE5"/>
</svg>
