<svg width="26" height="32" viewBox="0 0 26 32" fill="none" xmlns="http://www.w3.org/2000/svg">
<path d="M16.7125 0.25H0.625V31.75H25.375V8.91138L16.7125 0.25ZM24.25 30.625H1.75V1.375H15.25V10.375H24.25V30.625ZM16.375 9.25V1.375L24.25 9.25H16.375ZM9.625 12.625H5.125V17.125H6.25V23.875H5.125V28.375H9.625V27.25H16.375V28.375H20.875V23.875H19.75V17.125H20.875V12.625H16.375V13.75H9.625V12.625ZM6.25 13.75H8.5V16H6.25V13.75ZM6.25 27.25V25H8.5V27.25H6.25ZM19.75 27.25H17.5V25H19.75V27.25ZM19.75 13.75V16H17.5V13.75H19.75ZM16.375 14.875V17.125H18.625V23.875H16.375V26.125H9.625V23.875H7.375V17.125H9.625V14.875H16.375Z" fill="#076FE5"/>
</svg>
